{"title":"Gravity 2013 DVDSCR XVID AC3-VAiN","uid":9322288,"size":1508594711,"categoryP":"video","categoryS":"movies","magnet":"?xt=urn:btih:e2e2e3b452ab23ac9c8c38da89c95927d3d3fde3&amp;dn=Gravity+2013+DVDSCR+XVID+AC3-VAiN&amp;tr=udp%3A%2F%2Ftracker.openbittorrent.com%3A80&amp;tr=udp%3A%2F%2Fopen.demonii.com%3A1337&amp;tr=udp%3A%2F%2Ftracker.coppersurfer.tk%3A6969&amp;tr=udp%3A%2F%2Fexodus.desync.com%3A6969","seeders":0,"leechers":0,"uploader":"HeroMaster","files":-1,"time":1386571872,"description":":::::: VAiN PRESENTS ::::::\n\n\n:::: Gravity 2013 DVDSCR XVID AC3-VAiN ::::\n\n\n::Information::\n\n\nSOURCE......: vobs\nSAMPLE......: Yes\nSUBTITLES...: None\n\n\nGeneral      \nFormat                           : AVI\nFormat/Info                      : Audio Video Interleave\nFile size                        : 1.38 GiB\nDuration                         : 1h 31mn\nOverall bit rate                 : 2 143 Kbps\nWriting application              : VirtualDubMod 1.5.10.2 (build 2540/release)\nWriting library                  : VirtualDubMod build 2540/release\n\nVideo\nID                               : 0\nFormat                           : MPEG-4 Visual\nFormat profile                   : Advanced Simple@L5\nFormat settings, BVOP            : 2\nFormat settings, QPel            : No\nFormat settings, GMC             : No warppoints\nFormat settings, Matrix          : Default (H.263)\nCodec ID                         : XVID\nCodec ID/Hint                    : XviD\nDuration                         : 1h 31mn\nBit rate                         : 1 750 Kbps\nWidth                            : 720 pixels\nHeight                           : 304 pixels\nDisplay aspect ratio             : 2.35:1\nFrame rate                       : 23.976 fps\nColor space                      : YUV\nChroma subsampling               : 4:2:0\nBit depth                        : 8 bits\nScan type                        : Progressive\nCompression mode                 : Lossy\nBits/(Pixel*Frame)               : 0.333\nStream size                      : 1.12 GiB (82%)\nWriting library                  : XviD 1.2.1 (UTC 2008-12-04)\n\nAudio\nID                               : 1\nFormat                           : AC-3\nFormat/Info                      : Audio Coding 3\nMode extension                   : CM (complete main)\nCodec ID                         : 2000\nDuration                         : 1h 31mn\nBit rate mode                    : Constant\nBit rate                         : 384 Kbps\nChannel(s)                       : 6 channels\nChannel positions                : Front: L C R, Side: L R, LFE\nSampling rate                    : 48.0 KHz\nBit depth                        : 16 bits\nCompression mode                 : Lossy\nStream size                      : 252 MiB (18%)\nAlignment                        : Split accross interleaves\nInterleave, duration             : 42 ms (1.00 video frame)\n\n\n::IMDB:: \n\n &lt;a href=&quot;\nhttp://www.imdb.com/title/tt1454468/&quot; rel=&quot;nofollow&quot; target=&quot;_NEW&quot;&gt;\nhttp://www.imdb.com/title/tt1454468/&lt;/a&gt;\n\n\n::PLOT:: \n\n\nA medical engineer and an astronaut work together to survive after an accident leaves them adrift in space.\n\n\n::GREETZ::\n\n\nW4NTED worthy rival grps to add here ;) SUCKAS!!!!!!!\n\n\n::Poster::\n\n &lt;a href=&quot;\nhttp://i.imgur.com/CMn82AK.jpg&quot; rel=&quot;nofollow&quot; target=&quot;_NEW&quot;&gt;\nhttp://i.imgur.com/CMn82AK.jpg&lt;/a&gt;\n\n\n::Screenshots::\n\n &lt;a href=&quot;\nhttp://i.imgur.com/zurBDpO.jpg&quot; rel=&quot;nofollow&quot; target=&quot;_NEW&quot;&gt;\nhttp://i.imgur.com/zurBDpO.jpg&lt;/a&gt;\n\n\nSEED AND ENJOY!","torrent":{"xt":"urn:btih:e2e2e3b452ab23ac9c8c38da89c95927d3d3fde3","amp;dn":"Gravity+2013+DVDSCR+XVID+AC3-VAiN","amp;tr":["udp%3A%2F%2Ftracker.openbittorrent.com%3A80","udp%3A%2F%2Fopen.demonii.com%3A1337","udp%3A%2F%2Ftracker.coppersurfer.tk%3A6969","udp%3A%2F%2Fexodus.desync.com%3A6969"],"infoHash":"e2e2e3b452ab23ac9c8c38da89c95927d3d3fde3","infoHashBuffer":{"type":"Buffer","data":[226,226,227,180,82,171,35,172,156,140,56,218,137,201,89,39,211,211,253,227]},"announce":[],"urlList":[]}}